<svg id="Layer_1" data-name="Layer 1" xmlns="http://www.w3.org/2000/svg" viewBox="0 0 58.92 21.6"><defs><style>.cls-1{fill:#f2f0dd;}</style></defs><title>shermanWM</title><path class="cls-1" d="M66.84,46.08,66,45.82a1.75,1.75,0,0,1-.94-.48.72.72,0,0,1-.14-.48.8.8,0,0,1,.27-.58A1.4,1.4,0,0,1,66.1,44a2.84,2.84,0,0,1,1.83.73L69,42.52a7.56,7.56,0,0,0-3.31-.87,3.82,3.82,0,0,0-2.75,1,3.54,3.54,0,0,0-1,2.59,2.71,2.71,0,0,0,.61,1.89,3.64,3.64,0,0,0,1.55.87l.72.22a3.87,3.87,0,0,1,1.38.56.87.87,0,0,1,.3.65,1,1,0,0,1-.27.67,1.42,1.42,0,0,1-1.08.37,3.74,3.74,0,0,1-2.45-1.09l-1.19,2.25a7.9,7.9,0,0,0,1.62.85,5.72,5.72,0,0,0,2.11.35,4.17,4.17,0,0,0,3.16-1.09,3.63,3.63,0,0,0,1-2.7,2.55,2.55,0,0,0-.69-1.91A4.11,4.11,0,0,0,66.84,46.08Z" transform="translate(-61.57 -41.65)"/><polygon class="cls-1" points="14.28 6 11.28 6 11.28 3.01 9.21 3.01 9.21 11.01 11.28 11.01 11.28 7.77 14.28 7.77 14.28 11.01 16.37 11.01 16.37 3.01 14.28 3.01 14.28 6"/><polygon class="cls-1" points="22.6 9.25 20.13 9.25 20.13 7.87 22.47 7.87 22.47 6.1 20.13 6.1 20.13 4.77 22.6 4.77 22.6 3.01 18.05 3.01 18.05 11.01 22.6 11.01 22.6 9.25"/><path class="cls-1" d="M87.57,49.59l2,3.07h2.58l-2.51-3.27a2.31,2.31,0,0,0,1.1-.56,2.28,2.28,0,0,0,.64-1.66,2.66,2.66,0,0,0-.68-1.8,2.61,2.61,0,0,0-2-.71H85.49v6.13h0v9.48h2.08V57.15a1.27,1.27,0,0,1,.35-.95,1.13,1.13,0,0,1,.76-.25.84.84,0,0,1,.66.25,1.75,1.75,0,0,1,.26,1.13v2.94h2.08V56.58A2,2,0,0,0,91.13,55a2.31,2.31,0,0,0-1.71-.62,2.28,2.28,0,0,0-1.2.29,2.4,2.4,0,0,0-.65.57V52.66h0Zm0-3.32H88a1.42,1.42,0,0,1,1,.31.94.94,0,0,1,.27.67,1,1,0,0,1-.26.67,1.57,1.57,0,0,1-1,.33h-.39Z" transform="translate(-61.57 -41.65)"/><polygon class="cls-1" points="41.1 11.01 39.9 3.01 37.83 3.01 36.11 7.28 34.49 3.01 32.44 3.01 31.09 11.01 33.15 11.01 33.83 6.4 35.68 11.01 36.51 11.01 38.44 6.4 39.02 11.01 41.1 11.01"/><path class="cls-1" d="M106,51.32h2.91l.49,1.34h2.22l-3-8h-2.27l-3.07,8h2.2Zm1.46-4.18.9,2.59h-1.78Z" transform="translate(-61.57 -41.65)"/><polygon class="cls-1" points="56.84 3.01 56.84 7.9 53.02 3.01 50.94 3.01 50.94 11.01 53.02 11.01 53.02 6.12 56.84 11.01 58.92 11.01 58.92 3.01 56.84 3.01"/><path class="cls-1" d="M80.73,55.16a3.14,3.14,0,0,0-.94,2.25,3,3,0,0,0,.9,2.17,3.36,3.36,0,0,0,3.73.56V58.4a1.61,1.61,0,0,1-1.07.39,1.39,1.39,0,0,1-1.06-.44,1.5,1.5,0,0,1-.37-1,1.44,1.44,0,0,1,.4-1,1.36,1.36,0,0,1,1-.4,1.89,1.89,0,0,1,1.08.37V54.6a3,3,0,0,0-1.35-.32A3.34,3.34,0,0,0,80.73,55.16Z" transform="translate(-61.57 -41.65)"/><path class="cls-1" d="M96,54.26a3.63,3.63,0,0,0-2.59,1,3,3,0,0,0,0,4.27,4,4,0,0,0,5.19,0,2.9,2.9,0,0,0,.89-2.14,2.85,2.85,0,0,0-.89-2.13A3.66,3.66,0,0,0,96,54.26Zm.93,4a1.29,1.29,0,0,1-.92.39,1.32,1.32,0,0,1-.94-2.26A1.46,1.46,0,0,1,96,56a1.35,1.35,0,0,1,1.33,1.33A1.28,1.28,0,0,1,96.92,58.28Z" transform="translate(-61.57 -41.65)"/><path class="cls-1" d="M104.5,54.33a2.17,2.17,0,0,0-1.84.86v-.73h-2.08v5.81h2.08V57.15a1.35,1.35,0,0,1,.33-.92,1.14,1.14,0,0,1,.77-.28.85.85,0,0,1,.66.25,1.63,1.63,0,0,1,.26,1.13v2.94h2.08V56.58a2,2,0,0,0-.54-1.63A2.36,2.36,0,0,0,104.5,54.33Z" transform="translate(-61.57 -41.65)"/><path class="cls-1" d="M112.54,55.06a2.28,2.28,0,0,0-1.73-.77,2.94,2.94,0,0,0-2.11.88,3.36,3.36,0,0,0-.86,2.28,3.07,3.07,0,0,0,.81,2.12,2.9,2.9,0,0,0,2.14.82,2.22,2.22,0,0,0,1.75-.77v.59a1.39,1.39,0,0,1-.42,1.07,1.22,1.22,0,0,1-.92.33.9.9,0,0,1-1-.6h-2.31a2.11,2.11,0,0,0,.64,1.21,3.53,3.53,0,0,0,2.71,1,3.43,3.43,0,0,0,2.56-.94,3.08,3.08,0,0,0,.8-2.4V54.46h-2.08Zm-.29,3.22a1.37,1.37,0,0,1-.94.39,1.27,1.27,0,0,1-.93-.38,1.3,1.3,0,0,1,0-1.88,1.24,1.24,0,0,1,.92-.39,1.28,1.28,0,0,1,.92.38,1.47,1.47,0,0,1,.42,1A1.37,1.37,0,0,1,112.25,58.28Z" transform="translate(-61.57 -41.65)"/></svg>